<svg width="360" height="219" viewBox="0 0 360 219" fill="none" xmlns="http://www.w3.org/2000/svg">
<g clip-path="url(#clip0)">
<path d="M174.172 193.626C96.6864 188.901 4.28141 140.793 8.98588 91.2578C13.6904 41.7225 103.186 -4.39066 180.671 0.33424C258.156 5.05914 302.76 97.6322 298.055 147.167C293.351 196.703 251.657 198.351 174.172 193.626Z" fill="#4B4A4A"/>
<path d="M180.67 201.582C270.001 201.582 342.419 198.027 342.419 193.642C342.419 189.257 270.001 185.702 180.67 185.702C91.339 185.702 18.9218 189.257 18.9218 193.642C18.9218 198.027 91.339 201.582 180.67 201.582Z" fill="#7C7C7C"/>
<path opacity="0.1" d="M86.5 163.289C162.439 163.289 224 160.279 224 156.566C224 152.852 162.439 149.842 86.5 149.842C10.5608 149.842 -51 152.852 -51 156.566C-51 160.279 10.5608 163.289 86.5 163.289Z" fill="#2B2B2B"/>
<path d="M67.83 219C105.291 219 135.66 216.878 135.66 214.261C135.66 211.644 105.291 209.523 67.83 209.523C30.3685 209.523 0 211.644 0 214.261C0 216.878 30.3685 219 67.83 219Z" fill="#4B4A4A"/>
<path opacity="0.1" d="M149.776 236.061C149.776 236.415 147.685 235.841 144.085 234.703C134.757 233.653 114.94 232.928 92 232.928C66.6142 232.928 29.7544 219.969 15.7449 215.543C12.0976 215.132 10.0539 214.671 10.0539 214.185C10.0539 213.831 12.145 214.405 15.7449 215.543C25.0731 216.593 44.8903 217.319 67.83 217.319C93.2158 217.319 130.076 230.277 144.085 234.703C147.732 235.114 149.776 235.575 149.776 236.061Z" fill="#2B2B2B"/>
<path d="M303.1 41.4947H62.7154V192.617H303.1V41.4947Z" fill="#2B2B2B"/>
<path d="M180.173 62.1471H120.87C120.776 62.1473 120.682 62.1325 120.594 62.1036C120.507 62.0747 120.427 62.0322 120.36 61.9787C120.293 61.9251 120.24 61.8615 120.204 61.7914C120.168 61.7214 120.149 61.6463 120.149 61.5705C120.149 61.4946 120.168 61.4195 120.204 61.3495C120.24 61.2794 120.293 61.2158 120.36 61.1623C120.427 61.1087 120.507 61.0662 120.594 61.0373C120.682 61.0084 120.776 60.9936 120.87 60.9938H180.173C180.364 60.9941 180.546 61.055 180.681 61.1631C180.816 61.2712 180.891 61.4177 180.891 61.5705C180.891 61.7232 180.816 61.8697 180.681 61.9778C180.546 62.0859 180.364 62.1468 180.173 62.1471V62.1471Z" fill="#F2F2F2"/>
<path d="M245.089 68.4906H151.817C151.626 68.4906 151.443 68.4299 151.308 68.3217C151.173 68.2136 151.097 68.0669 151.097 67.9139C151.097 67.761 151.173 67.6143 151.308 67.5062C151.443 67.398 151.626 67.3372 151.817 67.3372H245.089C245.184 67.3372 245.278 67.3522 245.365 67.3811C245.452 67.4101 245.532 67.4526 245.598 67.5062C245.665 67.5597 245.718 67.6233 245.754 67.6932C245.791 67.7632 245.809 67.8382 245.809 67.9139C245.809 67.9897 245.791 68.0647 245.754 68.1346C245.718 68.2046 245.665 68.2682 245.598 68.3217C245.532 68.3753 245.452 68.4178 245.365 68.4467C245.278 68.4757 245.184 68.4906 245.089 68.4906V68.4906Z" fill="#F2F2F2"/>
<path d="M180.461 74.8341H121.158C120.967 74.8341 120.784 74.7734 120.649 74.6652C120.514 74.5571 120.438 74.4104 120.438 74.2574C120.438 74.1045 120.514 73.9578 120.649 73.8497C120.784 73.7415 120.967 73.6808 121.158 73.6808H180.461C180.652 73.6808 180.835 73.7415 180.97 73.8497C181.105 73.9578 181.181 74.1045 181.181 74.2574C181.181 74.4104 181.105 74.5571 180.97 74.6652C180.835 74.7734 180.652 74.8341 180.461 74.8341V74.8341Z" fill="#F2F2F2"/>
<path d="M245.089 74.9494H185.787C185.596 74.9494 185.413 74.8887 185.278 74.7805C185.143 74.6724 185.067 74.5257 185.067 74.3728C185.067 74.2198 185.143 74.0731 185.278 73.965C185.413 73.8568 185.596 73.7961 185.787 73.7961H245.089C245.28 73.7961 245.463 73.8568 245.598 73.965C245.733 74.0731 245.809 74.2198 245.809 74.3728C245.809 74.5257 245.733 74.6724 245.598 74.7805C245.463 74.8887 245.28 74.9494 245.089 74.9494V74.9494Z" fill="#F2F2F2"/>
<path d="M180.605 81.1776H121.302C121.111 81.1776 120.928 81.1168 120.793 81.0087C120.658 80.9005 120.582 80.7539 120.582 80.6009C120.582 80.448 120.658 80.3013 120.793 80.1931C120.928 80.085 121.111 80.0242 121.302 80.0242H180.605C180.796 80.0242 180.979 80.085 181.114 80.1931C181.249 80.3013 181.325 80.448 181.325 80.6009C181.325 80.7539 181.249 80.9005 181.114 81.0087C180.979 81.1168 180.796 81.1776 180.605 81.1776Z" fill="#F2F2F2"/>
<path d="M180.749 87.5211H121.446C121.255 87.5211 121.072 87.4604 120.937 87.3522C120.802 87.2441 120.726 87.0974 120.726 86.9444C120.726 86.7915 120.802 86.6448 120.937 86.5366C121.072 86.4285 121.255 86.3677 121.446 86.3677H180.749C180.94 86.3677 181.123 86.4285 181.258 86.5366C181.393 86.6448 181.468 86.7915 181.468 86.9444C181.468 87.0974 181.393 87.2441 181.258 87.3522C181.123 87.4604 180.94 87.5211 180.749 87.5211V87.5211Z" fill="#F2F2F2"/>
<path d="M207.665 62.2625H190.681C190.49 62.2625 190.307 62.2017 190.172 62.0936C190.037 61.9854 189.961 61.8387 189.961 61.6858C189.961 61.5328 190.037 61.3862 190.172 61.278C190.307 61.1699 190.49 61.1091 190.681 61.1091H207.665C207.856 61.1091 208.039 61.1699 208.174 61.278C208.309 61.3862 208.385 61.5328 208.385 61.6858C208.385 61.8387 208.309 61.9854 208.174 62.0936C208.039 62.2017 207.856 62.2625 207.665 62.2625V62.2625Z" fill="#F2F2F2"/>
<path d="M207.665 81.1776H190.681C190.49 81.1776 190.307 81.1168 190.172 81.0087C190.037 80.9005 189.961 80.7539 189.961 80.6009C189.961 80.448 190.037 80.3013 190.172 80.1931C190.307 80.085 190.49 80.0242 190.681 80.0242H207.665C207.856 80.0242 208.039 80.085 208.174 80.1931C208.309 80.3013 208.385 80.448 208.385 80.6009C208.385 80.7539 208.309 80.9005 208.174 81.0087C208.039 81.1168 207.856 81.1776 207.665 81.1776V81.1776Z" fill="#F2F2F2"/>
<path d="M207.665 87.4058H190.681C190.586 87.4059 190.492 87.3911 190.405 87.3622C190.317 87.3333 190.238 87.2908 190.171 87.2373C190.104 87.1837 190.051 87.1201 190.014 87.05C189.978 86.98 189.959 86.9049 189.959 86.8291C189.959 86.7532 189.978 86.6781 190.014 86.6081C190.051 86.5381 190.104 86.4744 190.171 86.4209C190.238 86.3673 190.317 86.3248 190.405 86.2959C190.492 86.267 190.586 86.2522 190.681 86.2524H207.665C207.76 86.2522 207.854 86.267 207.941 86.2959C208.029 86.3248 208.108 86.3673 208.175 86.4209C208.242 86.4744 208.295 86.5381 208.332 86.6081C208.368 86.6781 208.387 86.7532 208.387 86.8291C208.387 86.9049 208.368 86.98 208.332 87.05C208.295 87.1201 208.242 87.1837 208.175 87.2373C208.108 87.2908 208.029 87.3333 207.941 87.3622C207.854 87.3911 207.76 87.4059 207.665 87.4058V87.4058Z" fill="#F2F2F2"/>
<path d="M236.165 87.4058H219.18C218.99 87.4054 218.807 87.3445 218.673 87.2364C218.538 87.1283 218.462 86.9818 218.462 86.8291C218.462 86.6763 218.538 86.5298 218.673 86.4217C218.807 86.3136 218.99 86.2527 219.18 86.2524H236.165C236.26 86.2522 236.354 86.267 236.441 86.2959C236.529 86.3248 236.608 86.3673 236.675 86.4209C236.742 86.4744 236.795 86.5381 236.831 86.6081C236.868 86.6781 236.886 86.7532 236.886 86.8291C236.886 86.9049 236.868 86.98 236.831 87.05C236.795 87.1201 236.742 87.1837 236.675 87.2373C236.608 87.2908 236.529 87.3333 236.441 87.3622C236.354 87.3911 236.26 87.4059 236.165 87.4058V87.4058Z" fill="#F2F2F2"/>
<path d="M137.711 68.4906H120.726C120.535 68.4906 120.352 68.4299 120.217 68.3217C120.082 68.2136 120.007 68.0669 120.007 67.9139C120.007 67.761 120.082 67.6143 120.217 67.5062C120.352 67.398 120.535 67.3372 120.726 67.3372H137.711C137.902 67.3372 138.085 67.398 138.22 67.5062C138.355 67.6143 138.431 67.761 138.431 67.9139C138.431 68.0669 138.355 68.2136 138.22 68.3217C138.085 68.4299 137.902 68.4906 137.711 68.4906V68.4906Z" fill="#F2F2F2"/>
<path d="M180.245 155.57H120.942C120.751 155.57 120.568 155.509 120.433 155.401C120.298 155.292 120.223 155.146 120.223 154.993C120.223 154.84 120.298 154.693 120.433 154.585C120.568 154.477 120.751 154.416 120.942 154.416H180.245C180.436 154.416 180.619 154.477 180.754 154.585C180.889 154.693 180.965 154.84 180.965 154.993C180.965 155.146 180.889 155.292 180.754 155.401C180.619 155.509 180.436 155.57 180.245 155.57Z" fill="#F2F2F2"/>
<path d="M179.957 168.257H120.654C120.464 168.257 120.28 168.196 120.145 168.088C120.011 167.979 119.935 167.833 119.935 167.68C119.935 167.527 120.011 167.38 120.145 167.272C120.28 167.164 120.464 167.103 120.654 167.103H179.957C180.148 167.103 180.331 167.164 180.466 167.272C180.601 167.38 180.677 167.527 180.677 167.68C180.677 167.833 180.601 167.979 180.466 168.088C180.331 168.196 180.148 168.257 179.957 168.257Z" fill="#F2F2F2"/>
<path d="M180.101 174.6H120.798C120.704 174.6 120.61 174.585 120.522 174.556C120.435 174.528 120.355 174.485 120.288 174.432C120.221 174.378 120.168 174.314 120.132 174.244C120.096 174.174 120.077 174.099 120.077 174.023C120.077 173.948 120.096 173.872 120.132 173.802C120.168 173.732 120.221 173.669 120.288 173.615C120.355 173.562 120.435 173.519 120.522 173.49C120.61 173.461 120.704 173.446 120.798 173.447H180.101C180.196 173.446 180.289 173.461 180.377 173.49C180.464 173.519 180.544 173.562 180.611 173.615C180.678 173.669 180.731 173.732 180.767 173.802C180.804 173.872 180.822 173.948 180.822 174.023C180.822 174.099 180.804 174.174 180.767 174.244C180.731 174.314 180.678 174.378 180.611 174.432C180.544 174.485 180.464 174.528 180.377 174.556C180.289 174.585 180.196 174.6 180.101 174.6V174.6Z" fill="#F2F2F2"/>
<path d="M205.434 168.372H188.45C188.259 168.372 188.076 168.311 187.941 168.203C187.806 168.095 187.73 167.948 187.73 167.795C187.73 167.642 187.806 167.496 187.941 167.387C188.076 167.279 188.259 167.219 188.45 167.219H205.434C205.625 167.219 205.808 167.279 205.943 167.387C206.078 167.496 206.154 167.642 206.154 167.795C206.154 167.948 206.078 168.095 205.943 168.203C205.808 168.311 205.625 168.372 205.434 168.372Z" fill="#F2F2F2"/>
<path d="M205.434 174.6H188.45C188.259 174.6 188.076 174.539 187.941 174.431C187.806 174.323 187.73 174.176 187.73 174.023C187.73 173.87 187.806 173.724 187.941 173.616C188.076 173.507 188.259 173.447 188.45 173.447H205.434C205.625 173.447 205.808 173.507 205.943 173.616C206.078 173.724 206.154 173.87 206.154 174.023C206.154 174.176 206.078 174.323 205.943 174.431C205.808 174.539 205.625 174.6 205.434 174.6V174.6Z" fill="#F2F2F2"/>
<path d="M233.934 168.372H216.949C216.759 168.372 216.575 168.311 216.44 168.203C216.306 168.095 216.23 167.948 216.23 167.795C216.23 167.642 216.306 167.496 216.44 167.387C216.575 167.279 216.759 167.219 216.949 167.219H233.934C234.125 167.219 234.308 167.279 234.443 167.387C234.578 167.496 234.654 167.642 234.654 167.795C234.654 167.948 234.578 168.095 234.443 168.203C234.308 168.311 234.125 168.372 233.934 168.372V168.372Z" fill="#F2F2F2"/>
<path d="M245.161 161.913H151.889C151.698 161.913 151.515 161.852 151.38 161.744C151.245 161.636 151.169 161.489 151.169 161.336C151.169 161.183 151.245 161.037 151.38 160.929C151.515 160.82 151.698 160.76 151.889 160.76H245.161C245.352 160.76 245.535 160.82 245.67 160.929C245.805 161.037 245.881 161.183 245.881 161.336C245.881 161.489 245.805 161.636 245.67 161.744C245.535 161.852 245.352 161.913 245.161 161.913V161.913Z" fill="#F2F2F2"/>
<path d="M137.783 161.913H120.798C120.607 161.913 120.424 161.852 120.289 161.744C120.154 161.636 120.079 161.489 120.079 161.336C120.079 161.183 120.154 161.037 120.289 160.929C120.424 160.82 120.607 160.76 120.798 160.76H137.783C137.974 160.76 138.157 160.82 138.292 160.929C138.427 161.037 138.503 161.183 138.503 161.336C138.503 161.489 138.427 161.636 138.292 161.744C138.157 161.852 137.974 161.913 137.783 161.913V161.913Z" fill="#F2F2F2"/>
<path d="M245.161 181.059H151.889C151.794 181.059 151.701 181.044 151.613 181.015C151.526 180.986 151.446 180.944 151.379 180.89C151.312 180.837 151.259 180.773 151.223 180.703C151.187 180.633 151.168 180.558 151.168 180.482C151.168 180.406 151.187 180.331 151.223 180.261C151.259 180.191 151.312 180.128 151.379 180.074C151.446 180.02 151.526 179.978 151.613 179.949C151.701 179.92 151.794 179.905 151.889 179.905H245.161C245.352 179.905 245.535 179.966 245.67 180.074C245.805 180.183 245.881 180.329 245.881 180.482C245.881 180.635 245.805 180.782 245.67 180.89C245.535 180.998 245.352 181.059 245.161 181.059V181.059Z" fill="#F2F2F2"/>
<path d="M137.783 181.059H120.798C120.704 181.059 120.61 181.044 120.522 181.015C120.435 180.986 120.355 180.944 120.288 180.89C120.221 180.837 120.168 180.773 120.132 180.703C120.096 180.633 120.077 180.558 120.077 180.482C120.077 180.406 120.096 180.331 120.132 180.261C120.168 180.191 120.221 180.128 120.288 180.074C120.355 180.02 120.435 179.978 120.522 179.949C120.61 179.92 120.704 179.905 120.798 179.905H137.783C137.878 179.905 137.971 179.92 138.059 179.949C138.146 179.978 138.226 180.02 138.293 180.074C138.36 180.128 138.413 180.191 138.449 180.261C138.486 180.331 138.504 180.406 138.504 180.482C138.504 180.558 138.486 180.633 138.449 180.703C138.413 180.773 138.36 180.837 138.293 180.89C138.226 180.944 138.146 180.986 138.059 181.015C137.971 181.044 137.878 181.059 137.783 181.059Z" fill="#F2F2F2"/>
<path d="M165.923 102.746L142.893 120.969L165.923 139.192L171.105 135.04L153.688 121.084L171.249 107.013L165.923 102.746Z" fill="#F2F2F2"/>
<path d="M199.893 102.746L222.923 120.969L199.893 139.192L194.711 135.04L212.128 121.084L194.567 107.013L199.893 102.746Z" fill="#F2F2F2"/>
<path d="M69.1086 47.6421C70.6975 47.6421 71.9856 46.61 71.9856 45.3368C71.9856 44.0637 70.6975 43.0316 69.1086 43.0316C67.5197 43.0316 66.2317 44.0637 66.2317 45.3368C66.2317 46.61 67.5197 47.6421 69.1086 47.6421Z" fill="#242424"/>
<path d="M76.7805 47.6421C78.3694 47.6421 79.6574 46.61 79.6574 45.3368C79.6574 44.0637 78.3694 43.0316 76.7805 43.0316C75.1916 43.0316 73.9035 44.0637 73.9035 45.3368C73.9035 46.61 75.1916 47.6421 76.7805 47.6421Z" fill="#242424"/>
<path d="M84.4523 47.6421C86.0412 47.6421 87.3293 46.61 87.3293 45.3368C87.3293 44.0637 86.0412 43.0316 84.4523 43.0316C82.8634 43.0316 81.5754 44.0637 81.5754 45.3368C81.5754 46.61 82.8634 47.6421 84.4523 47.6421Z" fill="#242424"/>
<path opacity="0.1" d="M303.1 49.1789H62.7154V49.9473H303.1V49.1789Z" fill="black"/>
<path d="M360 155.593C360 171.928 347.881 177.631 332.932 177.631C317.983 177.631 305.865 171.928 305.865 155.593C305.865 139.259 332.932 118.479 332.932 118.479C332.932 118.479 360 139.259 360 155.593Z" fill="#565656"/>
<path d="M331.946 175.132L332.224 161.462L343.76 144.55L332.267 159.317L332.392 153.171L340.343 140.935L332.425 151.544L332.649 140.489L341.163 130.748L332.684 138.75L332.824 118.479L331.944 145.315L332.016 144.208L323.36 133.59L331.877 146.333L331.071 158.68L331.047 158.352L321.067 147.179L331.017 159.51L330.916 161.054L330.898 161.077L330.906 161.204L328.859 192.529H331.593L331.921 176.349L341.847 164.048L331.946 175.132Z" fill="#1D1D1D"/>
<path d="M39.1973 192.385C38.3669 192.755 37.4908 193.056 36.5831 193.282C34.9596 193.637 33.2244 193.507 31.5845 193.81C30.9131 193.935 30.1824 194.194 29.9689 194.719C29.8123 195.104 29.9827 195.52 30.1458 195.903C31.9578 200.16 33.05 204.68 35.9397 208.536C37.1542 210.156 38.6615 211.622 40.4126 212.888C41.0696 213.362 41.8141 213.826 42.6936 213.901C43.0989 213.935 43.5083 213.883 43.8805 213.75C44.2528 213.617 44.5746 213.408 44.8136 213.143C45.0526 212.879 45.2003 212.568 45.2417 212.243C45.2831 211.918 45.2169 211.59 45.0496 211.293C44.7905 210.831 44.3089 210.474 43.9983 210.034C43.6614 209.472 43.4639 208.864 43.4166 208.243C43.1312 206.422 42.8561 204.519 43.6434 202.796C44.1715 201.64 45.1401 200.655 45.947 199.608C46.754 198.561 47.4244 197.361 47.2448 196.139C47.1223 195.304 46.6145 194.541 46.0781 193.82C45.5406 193.096 44.4783 191.154 43.3984 190.912C42.2775 190.662 40.1749 191.983 39.1973 192.385Z" fill="#2F2E41"/>
<path d="M68.7452 207.089C68.7621 207.501 68.6904 207.913 68.5332 208.305C68.1951 209.02 67.3565 209.51 66.9233 210.192C66.3207 211.14 66.5938 212.286 66.993 213.3C67.2433 213.936 67.5716 214.598 68.2437 214.991C68.8185 215.277 69.4721 215.445 70.1469 215.48C75.9124 216.119 81.7691 215.752 87.5871 215.886C88.6475 215.911 89.7702 215.94 90.6959 215.525C91.6216 215.11 92.1938 214.066 91.5642 213.382C90.9989 212.767 89.8811 212.773 88.9296 212.737C86.4518 212.636 84.0921 211.857 82.2445 210.53C81.8802 210.281 81.5641 209.99 81.3068 209.666C81.109 209.378 80.9448 209.076 80.8164 208.765C80.0008 206.994 79.0305 205.272 77.9127 203.611C77.5998 203.146 77.2456 202.662 76.6641 202.414C76.2385 202.258 75.7765 202.178 75.309 202.176C73.8589 202.101 70.1039 201.706 68.9826 202.609C67.9465 203.444 68.7681 206.029 68.7452 207.089Z" fill="#2F2E41"/>
<path d="M77.6682 103.915C82.7836 103.915 86.9304 100.592 86.9304 96.4933C86.9304 92.3944 82.7836 89.0716 77.6682 89.0716C72.5529 89.0716 68.4061 92.3944 68.4061 96.4933C68.4061 100.592 72.5529 103.915 77.6682 103.915Z" fill="#FBBEBE"/>
<path d="M69.3043 102.622C68.7534 103.803 67.8189 104.913 66.4592 105.549L79.2695 107.643C78.8048 106.145 78.7436 104.585 79.0899 103.066C79.217 102.699 79.2432 102.313 79.1665 101.937C78.9257 101.192 77.8794 100.834 76.9433 100.663C74.6053 100.236 72.5377 100.007 70.3651 99.1791C69.7009 100.09 69.7939 101.571 69.3043 102.622Z" fill="#FBBEBE"/>
<path d="M66.3522 102.77C67.7303 102.271 69.2317 102.028 70.7438 102.059C72.2559 102.091 73.7395 102.397 75.0831 102.953C76.7255 103.647 78.0853 104.694 79.4214 105.726C80.6529 106.678 81.9667 107.768 82.0541 109.138C82.0964 109.801 81.838 110.45 81.7076 111.106C81.4731 112.463 81.7711 113.844 82.5604 115.059C83.3497 116.274 84.5911 117.262 86.1125 117.886C87.1302 119.244 87.3402 120.89 87.3558 122.474C87.4149 128.477 85.0513 134.554 86.7387 140.403C87.1349 141.776 87.7494 143.106 88.0916 144.489C88.5349 146.279 88.513 148.121 88.745 149.937C88.9965 151.903 89.5454 153.838 90.3795 155.699C89.822 156.409 88.6618 156.682 87.6169 156.624C86.572 156.567 85.595 156.203 84.6626 155.821C80.1479 153.97 76.0128 151.529 71.3369 149.955C68.2433 148.915 64.9477 148.266 61.9466 147.064C58.9455 145.862 56.1544 143.954 55.2367 141.368C54.84 140.25 54.8155 139.072 54.7939 137.909C54.7027 133.014 54.6179 128.064 55.9479 123.285C57.1207 119.071 59.3815 115.039 59.8747 110.739C60.0352 109.34 60.0387 107.841 61.0146 106.674C62.394 105.023 65.3724 104.595 66.3522 102.77Z" fill="#2F2E41"/>
<path d="M72.4005 96.598C72.9462 96.0277 73.9989 95.9499 74.8708 96.1186C75.7427 96.2873 76.5466 96.6474 77.4272 96.7842C77.6274 96.8297 77.8372 96.8413 78.0432 96.8181C78.2493 96.7949 78.447 96.7375 78.6238 96.6495C78.9316 96.4066 79.1157 96.0807 79.1402 95.735C79.4486 94.2645 79.5207 92.7684 79.3546 91.2832C79.3088 91.0748 79.3262 90.8607 79.4054 90.6589C79.6234 90.2379 80.2885 90.1377 80.8317 90.0027C81.728 89.76 82.4978 89.2849 83.0195 88.6525C83.5412 88.0202 83.7852 87.2666 83.7128 86.5107C83.6992 86.1482 83.5092 85.8043 83.1832 85.5526C82.8076 85.3073 82.2817 85.2923 81.7972 85.2891C79.3074 85.2731 76.8176 85.2736 74.3278 85.2906C73.4063 85.2969 72.4385 85.315 71.6396 85.6832C71.049 85.9554 70.6098 86.3935 70.0795 86.7363C68.6966 87.6305 66.8261 87.8125 65.1436 88.2708C64.3223 88.4582 63.5765 88.8145 62.9803 89.3045C62.4208 89.8167 62.1518 90.5783 62.5032 91.198C62.6836 91.4563 62.8851 91.7048 63.1063 91.9418C64.0987 93.2133 63.4381 94.8626 63.5863 96.3576C63.7713 98.2244 67.2192 101.253 69.5571 101.695C73.3316 102.408 71.151 97.8235 72.4005 96.598Z" fill="#2F2E41"/>
<path d="M67.1717 178.449C67.4099 179.812 67.7154 181.179 67.6337 182.554C67.5197 184.474 66.6558 186.323 66.4961 188.24C66.3768 189.672 66.6527 191.12 66.4045 192.541C66.2456 193.451 65.8752 194.329 65.6459 195.229C65.2828 196.697 65.293 198.208 65.6761 199.672C66.0591 201.136 66.807 202.523 67.8749 203.75C68.0318 203.96 68.2549 204.133 68.5217 204.252C68.7777 204.328 69.0516 204.357 69.3234 204.337C72.0192 204.293 74.7078 204.097 77.3693 203.751C77.5642 203.745 77.7488 203.68 77.886 203.569C77.946 203.495 77.9844 203.411 77.9982 203.324C78.4917 201.292 77.3663 199.253 77.0801 197.195C76.7746 194.998 77.4326 192.795 78.0858 190.647C78.382 189.587 78.752 188.542 79.1942 187.515C79.5099 186.824 79.8912 186.152 80.1649 185.45C80.5525 184.346 80.7885 183.213 80.8688 182.068C81.0588 180.262 81.1595 178.452 81.1708 176.638C81.2353 174.919 81.0568 173.2 80.6385 171.513C80.0382 169.377 78.8088 167.394 77.5903 165.435C76.9387 165.56 76.327 165.793 75.7944 166.118C74.2241 166.933 72.5845 167.659 70.8877 168.291C69.7476 168.715 67.5242 169.016 66.8006 169.901C66.0871 170.773 66.5475 172.552 66.602 173.514C66.6955 175.165 66.8855 176.81 67.1717 178.449Z" fill="#2F2E41"/>
<path opacity="0.1" d="M67.1717 178.449C67.4099 179.812 67.7154 181.179 67.6337 182.554C67.5197 184.474 66.6558 186.323 66.4961 188.24C66.3768 189.672 66.6527 191.12 66.4045 192.541C66.2456 193.451 65.8752 194.329 65.6459 195.229C65.2828 196.697 65.293 198.208 65.6761 199.672C66.0591 201.136 66.807 202.523 67.8749 203.75C68.0318 203.96 68.2549 204.133 68.5217 204.252C68.7777 204.328 69.0516 204.357 69.3234 204.337C72.0192 204.293 74.7078 204.097 77.3693 203.751C77.5642 203.745 77.7488 203.68 77.886 203.569C77.946 203.495 77.9844 203.411 77.9982 203.324C78.4917 201.292 77.3663 199.253 77.0801 197.195C76.7746 194.998 77.4326 192.795 78.0858 190.647C78.382 189.587 78.752 188.542 79.1942 187.515C79.5099 186.824 79.8912 186.152 80.1649 185.45C80.5525 184.346 80.7885 183.213 80.8688 182.068C81.0588 180.262 81.1595 178.452 81.1708 176.638C81.2353 174.919 81.0568 173.2 80.6385 171.513C80.0382 169.377 78.8088 167.394 77.5903 165.435C76.9387 165.56 76.327 165.793 75.7944 166.118C74.2241 166.933 72.5845 167.659 70.8877 168.291C69.7476 168.715 67.5242 169.016 66.8006 169.901C66.0871 170.773 66.5475 172.552 66.602 173.514C66.6955 175.165 66.8855 176.81 67.1717 178.449Z" fill="black"/>
<path d="M54.6496 149.334C53.4196 151.988 55.2276 154.855 56.7984 157.391C60.6682 163.637 63.3555 170.302 66.0284 176.938C66.2286 177.436 66.4287 177.978 66.2055 178.469C66.0127 178.817 65.6998 179.115 65.3035 179.326C63.4605 180.448 61.1137 180.847 58.9183 181.434C56.7966 182.001 54.7645 182.765 52.8631 183.709C51.2722 184.498 49.7819 185.41 48.2945 186.321L43.5597 189.218C43.2532 189.384 42.9853 189.592 42.7683 189.832C42.3116 190.406 42.4987 191.156 42.7261 191.811C43.3282 193.548 44.1034 195.244 45.0443 196.881C45.1991 197.24 45.4938 197.549 45.885 197.764C46.624 198.082 47.528 197.66 48.0923 197.163C48.6566 196.665 49.1448 196.046 49.9403 195.833C50.7349 195.619 51.6094 195.878 52.4393 195.784C53.7814 195.633 54.6725 194.643 55.64 193.882C59.5927 190.775 66.192 191 70.5401 188.253C71.1687 187.802 71.8341 187.386 72.5319 187.006C73.267 186.658 74.1006 186.467 74.8633 186.159C77.1829 185.223 78.6412 183.288 79.4224 181.303C80.2036 179.319 80.4264 177.224 80.9878 175.192C81.278 174.141 81.66 173.102 81.7891 172.031C81.8721 171.035 81.845 170.035 81.7082 169.043L80.1392 153.492C80.0115 152.225 79.8835 150.958 79.6355 149.703C74.9759 149.836 70.3197 149.987 65.6575 150.031C61.9476 150.066 58.1696 150.274 54.6496 149.334Z" fill="#2F2E41"/>
<path d="M52.9366 152.972C53.5687 153.787 55.1072 153.77 56.1666 153.324C57.226 152.877 58.049 152.127 59.1109 151.684C60.5378 151.089 62.2263 151.111 63.8343 151.148C66.3799 151.205 68.9568 151.267 71.406 151.826C73.9393 152.404 76.4054 153.517 79.0248 153.295C79.4806 153.256 79.979 153.152 80.2271 152.843C80.3725 152.619 80.4408 152.368 80.4252 152.116L80.5108 150.283C80.5633 149.966 80.5 149.643 80.3286 149.354C80.1088 149.114 79.8075 148.929 79.4605 148.821C75.7321 147.375 71.4803 147.106 67.3405 146.992C65.2361 146.935 63.1309 146.911 61.0248 146.921C59.2376 146.93 57.092 146.723 55.3544 147.105C53.0225 147.619 51.7536 151.448 52.9366 152.972Z" fill="#2F2E41"/>
<path d="M76.3476 104.947C71.4625 104.913 67.0355 102.329 62.1509 102.266C61.5607 102.233 60.9694 102.315 60.4271 102.504C59.7464 102.779 59.2989 103.31 58.7818 103.759C57.3375 105.012 55.246 105.681 53.7622 106.905C52.3709 108.052 51.5972 109.76 52.1464 111.298C52.6957 112.836 54.7688 114.015 56.7109 113.646C57.4933 111.616 59.1082 109.858 61.2938 108.656C62.431 108.072 63.6295 107.568 64.8757 107.15C67.0711 106.353 69.5261 105.54 71.8181 106.138C72.6633 106.394 73.4604 106.742 74.1865 107.173L78.0077 109.229C77.5624 107.822 77.1621 106.244 76.3476 104.947Z" fill="#242424"/>
<path d="M56.1482 112.285C55.4995 112.934 56.434 113.873 56.2909 114.696C56.1959 115.243 55.6343 115.661 55.4004 116.18C55.1581 116.718 55.2866 117.314 55.1947 117.881C55.1025 118.294 54.9661 118.699 54.7871 119.093C54.3755 120.269 54.0883 121.471 53.9283 122.685L53.0733 127.802C52.9249 128.572 52.8346 129.348 52.8029 130.127C52.846 130.709 52.7974 131.293 52.6583 131.865C52.469 132.425 52.0497 132.914 51.7677 133.447C51.4857 133.981 51.3549 134.626 51.7359 135.118C50.46 135.97 50.0807 137.642 50.9728 138.765C51.1426 138.939 51.2755 139.135 51.366 139.345C51.4153 139.637 51.3551 139.935 51.1929 140.2L50.3283 142.046C50.107 142.519 50.037 143.238 50.6522 143.346C50.1426 143.77 49.7455 144.273 49.4851 144.823C49.3587 145.099 49.3209 145.397 49.3753 145.688C49.4296 145.979 49.5742 146.255 49.7959 146.489C50.0107 146.64 50.1936 146.818 50.3376 147.016C50.4221 147.292 50.4003 147.581 50.2749 147.847C50.1457 148.25 50.1207 148.67 50.2017 149.081C50.2827 149.492 50.4679 149.886 50.7458 150.237C51.0338 150.584 51.4417 150.857 51.9196 151.021C52.3975 151.185 52.9247 151.234 53.4369 151.162C55.1664 150.849 56.7205 150.356 58.4643 150.612C62.2191 151.164 65.9859 151.719 69.6225 152.649C73.7729 153.711 77.7917 155.268 82.1295 155.595C82.4149 155.642 82.7117 155.605 82.9659 155.49C83.1869 155.323 83.3244 155.096 83.3527 154.853C83.7996 153.174 84.2465 151.495 84.6934 149.816C85.2336 147.955 85.645 146.072 85.9257 144.174C86.0783 142.95 86.1219 141.718 86.1653 140.488L86.5108 130.695C86.6726 129.252 86.4324 127.798 85.8075 126.438L83.82 121.354C82.6858 118.453 80.0839 115.88 79.1575 112.932C78.5712 111.066 78.1381 109.064 76.5658 107.609C74.3242 105.536 70.4459 105.213 67.0515 105.57C65.518 105.731 63.9713 106.009 62.6449 106.646C61.1111 107.383 59.9811 108.544 58.8879 109.678C57.987 110.612 57.07 111.364 56.1482 112.285Z" fill="#242424"/>
<path d="M64.0741 141.088C64.3538 142.054 64.9412 142.945 65.3007 143.895C65.903 145.485 65.8519 147.198 66.4531 148.788C66.7054 149.456 67.071 150.097 67.2521 150.779C67.6744 152.37 67.0578 154.016 66.292 155.522C65.5262 157.028 64.5935 158.513 64.3449 160.127C64.1698 161.264 64.4213 162.548 65.5149 163.285C66.6502 164.051 68.3001 164 69.7788 163.898C70.3097 163.886 70.8337 163.798 71.3264 163.639C72.4572 163.211 72.9335 162.139 73.1979 161.159C74.0837 157.875 73.8307 154.472 73.5732 151.119L72.9 142.35C72.7704 140.662 72.6315 138.939 71.9823 137.318C71.7461 136.728 71.3345 135.537 70.6624 135.16C69.9966 134.787 68.0955 134.771 67.2712 134.74C63.404 134.594 63.4474 138.919 64.0741 141.088Z" fill="#FBBEBE"/>
<path d="M68.3589 108.712C67.5691 108.381 66.574 108.523 65.8106 108.892C65.0735 109.297 64.4279 109.799 63.9016 110.378C62.195 112.047 60.3883 113.962 60.6414 116.11C60.7363 116.916 61.1212 117.678 61.3822 118.46C62.5264 121.887 61.2611 125.511 61.4063 129.057C61.4902 131.106 62.0466 133.121 62.6007 135.122C62.7137 135.531 62.8949 136.004 63.3879 136.141C63.7583 136.244 64.1584 136.112 64.525 136C65.8908 135.596 67.3579 135.461 68.8025 135.606C70.2471 135.752 71.6266 136.175 72.8244 136.838C73.7402 136.447 73.3971 135.208 73.1917 134.393C72.5817 131.971 73.4098 129.471 74.4155 127.135C75.4212 124.799 76.6246 122.466 76.7912 119.998C76.98 117.202 75.823 114.473 74.6815 111.826C74.4323 111.249 74.16 110.643 73.5823 110.244C73.0877 109.949 72.5209 109.742 71.9191 109.635C70.7066 109.348 69.479 109.182 68.3589 108.712Z" fill="#2F2E41"/>
</g>
<defs>
<clipPath id="clip0">
<rect width="360" height="219" fill="white"/>
</clipPath>
</defs>
</svg>
